<svg xmlns="http://www.w3.org/2000/svg" viewBox="0 0 2564.74 406.85"><defs><style>.cls-1{isolation:isolate;}.cls-13,.cls-2{fill:#f48003;}.cls-10,.cls-11,.cls-12,.cls-13,.cls-14,.cls-15,.cls-16,.cls-17,.cls-18,.cls-19,.cls-2,.cls-20,.cls-3,.cls-4,.cls-5,.cls-6,.cls-7,.cls-8,.cls-9{stroke:#fff;stroke-width:2px;}.cls-10,.cls-2,.cls-3,.cls-4,.cls-5,.cls-6,.cls-7,.cls-8,.cls-9{stroke-miterlimit:10;}.cls-17,.cls-3{fill:#095884;}.cls-18,.cls-4{fill:#a6dde2;}.cls-19,.cls-5{fill:#40adbf;}.cls-15,.cls-6{fill:#f7f363;}.cls-14,.cls-7{fill:#9b800d;}.cls-16,.cls-8{fill:#f7d50b;}.cls-11,.cls-9{fill:#6d4b2d;}.cls-10,.cls-12{fill:#edb985;}.cls-11,.cls-12,.cls-13,.cls-14,.cls-15,.cls-16,.cls-17,.cls-18,.cls-19,.cls-20{stroke-linecap:round;stroke-linejoin:round;}.cls-11,.cls-12,.cls-13,.cls-14,.cls-15,.cls-16,.cls-17,.cls-18,.cls-19{mix-blend-mode:multiply;opacity:0.7;}.cls-20{fill:none;}.cls-21{fill:#fff;mix-blend-mode:lighten;opacity:0.15;}</style></defs><g class="cls-1"><g id="Layer_2" data-name="Layer 2"><g id="LIGHTEN_LAYER" data-name="LIGHTEN LAYER"><polygon class="cls-2" points="1077.37 223.68 1145.37 115.68 1258.37 203.68 1077.37 223.68"/><polygon class="cls-3" points="421.83 403.43 557.8 283.48 328.95 314.09 421.83 403.43"/><polygon class="cls-4" points="260.36 403.43 328.34 314.09 93.42 261.39 260.36 403.43"/><polygon class="cls-5" points="671.32 403.43 771.48 294.52 558.41 283.48 671.32 403.43"/><polygon class="cls-4" points="1091.99 403.43 1170.3 272.43 1028.86 314.59 1091.99 403.43"/><polygon class="cls-4" points="1477.45 403.43 1555.76 252.36 1419.79 291.51 1477.45 403.43"/><polygon class="cls-5" points="929.3 403.43 1028.86 314.59 771.48 294.52 929.3 403.43"/><polygon class="cls-5" points="1300.2 403.43 1419.79 291.51 1170.3 272.43 1300.2 403.43"/><polygon class="cls-5" points="260.17 403.43 2.37 403.43 93.67 261.39 260.17 403.43"/><polygon class="cls-3" points="1610.37 403.43 1477.7 403.17 1555.69 252.11 1610.37 403.43"/><polygon class="cls-3" points="421.69 403.43 260.44 403.43 328.87 314.09 421.69 403.43"/><polygon class="cls-5" points="1789.37 403.43 1610.37 403.43 1673.76 261.39 1789.37 403.43"/><polygon class="cls-5" points="2562.37 403.43 2378.37 403.43 2501.37 334.43 2562.37 403.43"/><polygon class="cls-3" points="1948.69 403.43 1787.44 403.43 1855.87 294.43 1948.69 403.43"/><polygon class="cls-3" points="1477.39 403.43 1299.83 403.43 1419.65 291.51 1477.39 403.43"/><polygon class="cls-4" points="671.4 403.43 421.78 403.43 558.03 283.48 671.4 403.43"/><polygon class="cls-3" points="929.19 403.43 671.39 403.43 771.47 294.52 929.19 403.43"/><polygon class="cls-3" points="1092.24 403.43 929.47 403.43 1028.45 314.59 1092.24 403.43"/><polygon class="cls-3" points="1299.63 403.43 1092.62 403.43 1170.54 272.43 1299.63 403.43"/><polygon class="cls-5" points="2171.37 403.43 2283.37 286.17 2059.37 314.17 2171.37 403.43"/><polygon class="cls-4" points="2378.37 403.43 2501.37 334.43 2283.37 286.43 2378.37 403.43"/><polygon class="cls-4" points="2562.37 403.43 2562.37 253.43 2501.37 334.43 2562.37 403.43"/><polygon class="cls-4" points="1788.37 403.43 1856.37 294.43 1673.37 261.43 1788.37 403.43"/><polygon class="cls-4" points="1610.37 403.43 1673.37 261.43 1555.37 252.43 1610.37 403.43"/><polygon class="cls-4" points="1948.37 403.43 2059.37 314.43 1855.37 294.43 1948.37 403.43"/><polygon class="cls-3" points="2171.37 403.43 1948.37 403.43 2059.82 314.59 2171.37 403.43"/><polygon class="cls-3" points="2378.63 403.43 2171.62 403.43 2283.37 286.43 2378.63 403.43"/><polygon class="cls-3" points="3.04 227.6 2.37 403.43 93.67 261.39 3.04 227.6"/><polygon class="cls-6" points="2142.91 3.42 2006.93 123.38 2235.78 92.76 2142.91 3.42"/><polygon class="cls-7" points="2304.38 3.42 2236.39 92.76 2471.31 145.46 2304.38 3.42"/><polygon class="cls-8" points="1893.42 3.42 1793.26 112.33 2006.33 123.38 1893.42 3.42"/><polygon class="cls-7" points="1472.75 3.42 1394.44 134.42 1535.88 92.26 1472.75 3.42"/><polygon class="cls-7" points="1087.28 3.42 1008.97 154.49 1144.95 115.34 1087.28 3.42"/><polygon class="cls-8" points="1635.43 3.42 1535.88 92.26 1793.26 112.33 1635.43 3.42"/><polygon class="cls-8" points="1264.54 3.42 1144.95 115.34 1394.44 134.42 1264.54 3.42"/><polygon class="cls-8" points="2304.57 3.42 2562.37 3.42 2471.07 145.46 2304.57 3.42"/><polygon class="cls-6" points="954.37 3.42 1087.04 3.68 1009.04 154.74 954.37 3.42"/><polygon class="cls-6" points="2143.05 3.42 2304.29 3.42 2235.86 92.76 2143.05 3.42"/><polygon class="cls-8" points="775.37 3.42 954.37 3.42 890.97 145.46 775.37 3.42"/><polygon class="cls-8" points="2.37 3.42 186.37 3.42 63.37 72.42 2.37 3.42"/><polygon class="cls-6" points="616.05 3.42 777.29 3.42 708.86 112.42 616.05 3.42"/><polygon class="cls-6" points="1087.34 3.42 1264.91 3.42 1145.09 115.34 1087.34 3.42"/><polygon class="cls-7" points="1893.33 3.42 2142.96 3.42 2006.7 123.38 1893.33 3.42"/><polygon class="cls-6" points="1635.54 3.42 1893.34 3.42 1793.26 112.33 1635.54 3.42"/><polygon class="cls-6" points="1472.5 3.42 1635.27 3.42 1536.29 92.26 1472.5 3.42"/><polygon class="cls-6" points="1265.11 3.42 1472.12 3.42 1394.2 134.42 1265.11 3.42"/><polygon class="cls-8" points="393.37 3.42 281.37 120.68 505.37 92.68 393.37 3.42"/><polygon class="cls-7" points="186.37 3.42 63.37 72.42 281.37 120.42 186.37 3.42"/><polygon class="cls-7" points="2.37 3.42 2.37 153.43 63.37 72.42 2.37 3.42"/><polygon class="cls-7" points="776.37 3.42 708.37 112.42 891.37 145.43 776.37 3.42"/><polygon class="cls-7" points="954.37 3.42 891.37 145.43 1009.37 154.43 954.37 3.42"/><polygon class="cls-7" points="616.37 3.42 505.37 92.42 709.37 112.42 616.37 3.42"/><polygon class="cls-6" points="393.37 3.42 616.37 3.42 504.91 92.26 393.37 3.42"/><polygon class="cls-6" points="186.11 3.42 393.12 3.42 281.37 120.42 186.11 3.42"/><polygon class="cls-6" points="2561.7 179.25 2562.37 3.42 2471.07 145.46 2561.7 179.25"/><polygon class="cls-2" points="63.37 72.42 77.67 203.43 2.37 153.43 63.37 72.42"/><polygon class="cls-9" points="3.04 227.6 77.67 203.43 93.67 261.39 3.04 227.6"/><polygon class="cls-10" points="281.37 120.42 77.67 203.43 63.37 72.42 281.37 120.42"/><polygon class="cls-9" points="93.67 261.39 281.37 203.43 328.87 314.09 93.67 261.39"/><polygon class="cls-2" points="281.37 120.42 281.37 203.43 77.67 203.43 281.37 120.42"/><polygon class="cls-2" points="281.37 203.68 93.37 261.68 77.37 203.68 281.37 203.68"/><polygon class="cls-10" points="504.91 92.26 281.37 203.43 281.37 120.42 504.91 92.26"/><polygon class="cls-2" points="328.87 314.09 505.37 227.6 281.37 203.43 328.87 314.09"/><polygon class="cls-9" points="558.03 283.48 505.37 227.6 328.87 314.09 558.03 283.48"/><polygon class="cls-10" points="504.91 92.26 505.37 227.6 281.37 203.43 504.91 92.26"/><polygon class="cls-2" points="709.37 112.42 505.37 227.6 504.91 92.26 709.37 112.42"/><polygon class="cls-2" points="558.03 283.48 708.37 190.51 505.37 227.6 558.03 283.48"/><polygon class="cls-10" points="709.37 112.42 708.37 190.51 505.37 227.6 709.37 112.42"/><polygon class="cls-10" points="891.37 145.43 708.37 190.51 709.37 112.42 891.37 145.43"/><polygon class="cls-2" points="771.47 294.52 708.37 190.51 558.03 283.48 771.47 294.52"/><polygon class="cls-9" points="891.37 145.43 908.9 227.6 708.37 190.51 891.37 145.43"/><polygon class="cls-9" points="771.47 294.52 908.9 227.6 1028.45 314.59 771.47 294.52"/><polygon class="cls-2" points="1009.37 154.43 908.9 227.6 891.37 145.43 1009.37 154.43"/><polygon class="cls-10" points="1077.43 223.43 1009.37 154.43 908.9 227.6 1077.43 223.43"/><polygon class="cls-10" points="908.37 227.68 708.37 190.68 771.37 294.68 908.37 227.68"/><polygon class="cls-2" points="1028.45 314.59 1077.43 223.43 908.9 227.6 1028.45 314.59"/><polygon class="cls-9" points="1170.54 272.43 1077.43 223.43 1028.45 314.59 1170.54 272.43"/><polygon class="cls-2" points="1145.09 115.34 1077.43 223.43 1009.37 154.43 1145.09 115.34"/><polygon class="cls-10" points="1394.2 134.42 1258.11 203.6 1145.09 115.34 1394.2 134.42"/><polygon class="cls-9" points="1170.54 272.43 1258.11 203.6 1419.65 291.51 1170.54 272.43"/><polygon class="cls-10" points="1394.2 134.42 1456.58 190.51 1536.29 92.26 1394.2 134.42"/><polygon class="cls-2" points="1419.65 291.51 1456.58 190.51 1555.37 252.43 1419.65 291.51"/><polygon class="cls-2" points="1419.37 291.68 1258.37 203.68 1456.37 190.68 1419.37 291.68"/><polygon class="cls-2" points="1258.37 203.68 1394.37 134.68 1456.37 190.68 1258.37 203.68"/><polygon class="cls-2" points="1170.37 272.68 1077.37 223.68 1258.37 203.68 1170.37 272.68"/><polygon class="cls-2" points="1456.37 190.68 1535.37 92.68 1576.37 171.68 1456.37 190.68"/><polygon class="cls-10" points="1536.29 92.26 1576.87 171.18 1793.26 112.33 1536.29 92.26"/><polygon class="cls-9" points="1555.37 252.43 1576.87 171.18 1673.37 261.43 1555.37 252.43"/><polygon class="cls-9" points="1456.37 190.68 1577.37 171.68 1555.37 252.68 1456.37 190.68"/><polygon class="cls-9" points="1793.26 112.33 1787.87 203.18 1576.87 171.18 1793.26 112.33"/><polygon class="cls-10" points="1855.37 294.43 1787.87 203.18 1673.37 261.43 1855.37 294.43"/><polygon class="cls-10" points="2006.7 123.38 1968.87 190.18 1793.26 112.33 2006.7 123.38"/><polygon class="cls-10" points="1968.37 190.68 1788.37 203.68 1793.37 112.68 1968.37 190.68"/><polygon class="cls-9" points="2059.82 314.59 1968.87 190.18 1855.37 294.43 2059.82 314.59"/><polygon class="cls-10" points="2235.86 92.76 2130.87 190.18 2006.7 123.38 2235.86 92.76"/><polygon class="cls-9" points="2283.37 286.43 2130.87 190.18 2059.82 314.59 2283.37 286.43"/><polygon class="cls-10" points="2235.86 92.76 2267.87 171.18 2471.07 145.46 2235.86 92.76"/><polygon class="cls-2" points="2283.37 286.43 2267.87 171.18 2501.37 334.43 2283.37 286.43"/><polygon class="cls-2" points="2267.37 171.68 2471.37 145.68 2432.37 240.68 2267.37 171.68"/><polygon class="cls-2" points="2432.37 240.68 2562.37 179.68 2562.37 253.68 2432.37 240.68"/><polygon class="cls-10" points="2471.07 145.46 2432.87 240.18 2561.7 179.25 2471.07 145.46"/><polygon class="cls-10" points="2432.37 240.68 2268.37 171.68 2501.37 334.68 2432.37 240.68"/><polygon class="cls-9" points="2501.37 334.43 2432.87 240.18 2562.87 253.18 2501.37 334.43"/><polygon class="cls-2" points="2.37 153.43 2.37 227.6 77.67 203.43 2.37 153.43"/><polygon class="cls-2" points="1968.87 190.18 2130.87 190.18 2059.82 314.59 1968.87 190.18"/><polygon class="cls-2" points="1968.37 190.68 2007.37 123.68 2130.37 189.68 1968.37 190.68"/><polygon class="cls-2" points="1788.37 203.68 1969.37 189.68 1855.37 293.68 1788.37 203.68"/><polygon class="cls-2" points="1576.37 171.68 1788.37 203.68 1673.37 260.68 1576.37 171.68"/><polygon class="cls-2" points="2131.37 189.68 2268.37 170.68 2283.37 289.68 2131.37 189.68"/><polygon class="cls-2" points="2131.37 189.68 2236.37 92.68 2268.37 170.68 2131.37 189.68"/><polygon class="cls-11" points="63.76 72.2 2.76 153.16 40.61 145.15 63.76 72.2"/><polygon class="cls-12" points="2.76 153.16 77.37 203.63 63.76 72.2 2.76 153.16"/><polygon class="cls-13" points="40.61 145.15 2.76 153.16 77.37 203.63 40.61 145.15"/><polygon class="cls-11" points="63.76 72.2 102.76 138.16 78.61 204.15 63.76 72.2"/><polygon class="cls-12" points="102.76 138.16 281.37 120.64 63.76 72.2 102.76 138.16"/><polygon class="cls-13" points="78.61 204.15 102.76 138.16 281.37 120.64 78.61 204.15"/><polygon class="cls-11" points="77.76 203.2 215.76 178.16 281.61 203.15 77.76 203.2"/><polygon class="cls-12" points="215.76 178.16 281.37 120.64 77.76 203.2 215.76 178.16"/><polygon class="cls-13" points="281.61 203.15 215.76 178.16 281.37 120.64 281.61 203.15"/><polygon class="cls-11" points="281.76 203.2 329.76 255.16 329.61 314.15 281.76 203.2"/><polygon class="cls-12" points="329.76 255.16 505.37 227.63 281.76 203.2 329.76 255.16"/><polygon class="cls-13" points="329.61 314.15 329.76 255.16 505.37 227.63 329.61 314.15"/><polygon class="cls-11" points="505.76 92.2 417.76 172.16 281.61 203.15 505.76 92.2"/><polygon class="cls-12" points="417.76 172.16 505.37 227.63 505.76 92.2 417.76 172.16"/><polygon class="cls-13" points="281.61 203.15 417.76 172.16 505.37 227.63 281.61 203.15"/><polygon class="cls-11" points="504.76 92.2 532.76 141.16 505.61 227.15 504.76 92.2"/><polygon class="cls-12" points="532.76 141.16 708.37 112.64 504.76 92.2 532.76 141.16"/><polygon class="cls-13" points="505.61 227.15 532.76 141.16 708.37 112.64 505.61 227.15"/><polygon class="cls-11" points="505.76 227.2 572.76 247.16 557.61 283.15 505.76 227.2"/><polygon class="cls-12" points="572.76 247.16 708.37 190.63 505.76 227.2 572.76 247.16"/><polygon class="cls-13" points="557.61 283.15 572.76 247.16 708.37 190.63 557.61 283.15"/><polygon class="cls-11" points="708.76 112.2 775.76 145.16 708.61 190.15 708.76 112.2"/><polygon class="cls-12" points="775.76 145.16 891.37 145.63 708.76 112.2 775.76 145.16"/><polygon class="cls-13" points="708.61 190.15 775.76 145.16 891.37 145.63 708.61 190.15"/><polygon class="cls-11" points="708.76 190.2 803.76 224.16 771.61 294.15 708.76 190.2"/><polygon class="cls-12" points="803.76 224.16 909.37 227.63 708.76 190.2 803.76 224.16"/><polygon class="cls-13" points="771.61 294.15 803.76 224.16 909.37 227.63 771.61 294.15"/><polygon class="cls-11" points="890.76 145.2 923.76 166.16 909.61 227.15 890.76 145.2"/><polygon class="cls-12" points="923.76 166.16 1009.37 154.63 890.76 145.2 923.76 166.16"/><polygon class="cls-13" points="909.61 227.15 923.76 166.16 1009.37 154.63 909.61 227.15"/><polygon class="cls-11" points="909.76 227.2 997.76 260.16 1028.61 314.15 909.76 227.2"/><polygon class="cls-12" points="997.76 260.16 1077.37 223.63 909.76 227.2 997.76 260.16"/><polygon class="cls-13" points="1028.61 314.15 997.76 260.16 1077.37 223.63 1028.61 314.15"/><polygon class="cls-11" points="1008.76 154.2 1071.76 169.16 1077.61 224.15 1008.76 154.2"/><polygon class="cls-12" points="1071.76 169.16 1145.37 115.64 1008.76 154.2 1071.76 169.16"/><polygon class="cls-13" points="1077.61 224.15 1071.76 169.16 1145.37 115.64 1077.61 224.15"/><polygon class="cls-11" points="1077.76 224.2 1167.76 247.16 1170.61 272.15 1077.76 224.2"/><polygon class="cls-12" points="1167.76 247.16 1258.37 203.63 1077.76 224.2 1167.76 247.16"/><polygon class="cls-13" points="1170.61 272.15 1167.76 247.16 1258.37 203.63 1170.61 272.15"/><polygon class="cls-11" points="1145.76 115.2 1216.76 145.16 1258.61 203.15 1145.76 115.2"/><polygon class="cls-12" points="1216.76 145.16 1394.37 134.63 1145.76 115.2 1216.76 145.16"/><polygon class="cls-13" points="1258.61 203.15 1216.76 145.16 1394.37 134.63 1258.61 203.15"/><polygon class="cls-11" points="1394.76 134.2 1389.76 169.16 1258.61 204.15 1394.76 134.2"/><polygon class="cls-12" points="1389.76 169.16 1456.37 190.63 1394.76 134.2 1389.76 169.16"/><polygon class="cls-13" points="1258.61 204.15 1389.76 169.16 1456.37 190.63 1258.61 204.15"/><polygon class="cls-11" points="1456.76 190.2 1517.76 252.16 1419.61 291.15 1456.76 190.2"/><polygon class="cls-12" points="1517.76 252.16 1555.37 252.63 1456.76 190.2 1517.76 252.16"/><polygon class="cls-13" points="1419.61 291.15 1517.76 252.16 1555.37 252.63 1419.61 291.15"/><polygon class="cls-11" points="1535.76 93.2 1505.76 158.16 1456.61 191.15 1535.76 93.2"/><polygon class="cls-12" points="1505.76 158.16 1576.37 171.63 1535.76 93.2 1505.76 158.16"/><polygon class="cls-13" points="1456.61 191.15 1505.76 158.16 1576.37 171.63 1456.61 191.15"/><polygon class="cls-11" points="1535.76 92.2 1594.76 124.16 1576.61 172.15 1535.76 92.2"/><polygon class="cls-12" points="1594.76 124.16 1793.37 112.64 1535.76 92.2 1594.76 124.16"/><polygon class="cls-13" points="1576.61 172.15 1594.76 124.16 1793.37 112.64 1576.61 172.15"/><polygon class="cls-11" points="1787.76 203.2 1756.76 247.16 1674.61 262.15 1787.76 203.2"/><polygon class="cls-12" points="1756.76 247.16 1856.37 294.63 1787.76 203.2 1756.76 247.16"/><polygon class="cls-13" points="1674.61 262.15 1756.76 247.16 1856.37 294.63 1674.61 262.15"/><polygon class="cls-11" points="1792.76 112.2 1860.76 176.16 1787.61 203.15 1792.76 112.2"/><polygon class="cls-12" points="1860.76 176.16 1969.37 190.63 1792.76 112.2 1860.76 176.16"/><polygon class="cls-13" points="1787.61 203.15 1860.76 176.16 1969.37 190.63 1787.61 203.15"/><polygon class="cls-11" points="1788.76 203.2 1844.76 225.16 1855.61 294.15 1788.76 203.2"/><polygon class="cls-12" points="1844.76 225.16 1969.37 190.63 1788.76 203.2 1844.76 225.16"/><polygon class="cls-13" points="1855.61 294.15 1844.76 225.16 1969.37 190.63 1855.61 294.15"/><polygon class="cls-11" points="1968.76 190.2 2045.76 249.16 2130.61 190.15 1968.76 190.2"/><polygon class="cls-12" points="2045.76 249.16 2059.37 314.63 1968.76 190.2 2045.76 249.16"/><polygon class="cls-13" points="2130.61 190.15 2045.76 249.16 2059.37 314.63 2130.61 190.15"/><polygon class="cls-11" points="2006.76 123.2 2158.76 132.16 2130.61 190.15 2006.76 123.2"/><polygon class="cls-12" points="2158.76 132.16 2235.37 92.64 2006.76 123.2 2158.76 132.16"/><polygon class="cls-13" points="2130.61 190.15 2158.76 132.16 2235.37 92.64 2130.61 190.15"/><polygon class="cls-11" points="2130.76 190.2 2216.76 213.16 2283.61 286.15 2130.76 190.2"/><polygon class="cls-12" points="2216.76 213.16 2268.37 171.63 2130.76 190.2 2216.76 213.16"/><polygon class="cls-13" points="2283.61 286.15 2216.76 213.16 2268.37 171.63 2283.61 286.15"/><polygon class="cls-11" points="2236.76 93.2 2283.76 124.16 2268.61 170.15 2236.76 93.2"/><polygon class="cls-12" points="2283.76 124.16 2471.37 145.63 2236.76 93.2 2283.76 124.16"/><polygon class="cls-13" points="2268.61 170.15 2283.76 124.16 2471.37 145.63 2268.61 170.15"/><polygon class="cls-11" points="2268.51 170.9 2405.48 244.91 2501.46 334.06 2268.51 170.9"/><polygon class="cls-12" points="2405.48 244.91 2431.95 240.3 2268.51 170.9 2405.48 244.91"/><polygon class="cls-13" points="2501.46 334.06 2405.48 244.91 2431.95 240.3 2501.46 334.06"/><polygon class="cls-11" points="2471.76 145.2 2480.76 186.16 2432.61 241.15 2471.76 145.2"/><polygon class="cls-12" points="2480.76 186.16 2561.37 179.63 2471.76 145.2 2480.76 186.16"/><polygon class="cls-13" points="2432.61 241.15 2480.76 186.16 2561.37 179.63 2432.61 241.15"/><polygon class="cls-11" points="2559.76 179.2 2526.76 216.16 2432.61 241.15 2559.76 179.2"/><polygon class="cls-12" points="2526.76 216.16 2562.37 253.63 2559.76 179.2 2526.76 216.16"/><polygon class="cls-13" points="2432.61 241.15 2526.76 216.16 2562.37 253.63 2432.61 241.15"/><polygon class="cls-11" points="3.52 227.15 32.51 196.19 2.37 153.2 3.52 227.15"/><polygon class="cls-12" points="32.51 196.19 78.13 203.72 3.52 227.15 32.51 196.19"/><polygon class="cls-13" points="2.37 153.2 32.51 196.19 78.13 203.72 2.37 153.2"/><polygon class="cls-11" points="1555.52 252.15 1592.51 238.19 1577.37 171.2 1555.52 252.15"/><polygon class="cls-12" points="1592.51 238.19 1673.13 260.72 1555.52 252.15 1592.51 238.19"/><polygon class="cls-13" points="1577.37 171.2 1592.51 238.19 1673.13 260.72 1577.37 171.2"/><polygon class="cls-11" points="93.52 261.15 63.51 229.19 7.37 227.2 93.52 261.15"/><polygon class="cls-12" points="63.51 229.19 77.13 206.72 93.52 261.15 63.51 229.19"/><polygon class="cls-13" points="7.37 227.2 63.51 229.19 77.13 206.72 7.37 227.2"/><polygon class="cls-11" points="215.52 256.15 328.51 314.19 93.37 261.2 215.52 256.15"/><polygon class="cls-12" points="328.51 314.19 281.13 203.72 215.52 256.15 328.51 314.19"/><polygon class="cls-13" points="93.37 261.2 328.51 314.19 281.13 203.72 93.37 261.2"/><polygon class="cls-11" points="558.52 283.15 490.51 262.19 333.37 313.2 558.52 283.15"/><polygon class="cls-12" points="490.51 262.19 505.13 227.72 558.52 283.15 490.51 262.19"/><polygon class="cls-13" points="333.37 313.2 490.51 262.19 505.13 227.72 333.37 313.2"/><polygon class="cls-11" points="281.52 118.15 307.51 142.19 281.37 203.2 281.52 118.15"/><polygon class="cls-12" points="307.51 142.19 505.13 92.72 281.52 118.15 307.51 142.19"/><polygon class="cls-13" points="281.37 203.2 307.51 142.19 505.13 92.72 281.37 203.2"/><polygon class="cls-11" points="708.52 190.15 678.51 170.19 508.37 227.2 708.52 190.15"/><polygon class="cls-12" points="678.51 170.19 708.13 112.72 708.52 190.15 678.51 170.19"/><polygon class="cls-13" points="508.37 227.2 678.51 170.19 708.13 112.72 508.37 227.2"/><polygon class="cls-11" points="771.52 294.15 709.51 247.19 562.37 283.2 771.52 294.15"/><polygon class="cls-12" points="709.51 247.19 708.13 190.72 771.52 294.15 709.51 247.19"/><polygon class="cls-13" points="562.37 283.2 709.51 247.19 708.13 190.72 562.37 283.2"/><polygon class="cls-11" points="775.52 292.15 875.51 271.19 909.37 227.2 775.52 292.15"/><polygon class="cls-12" points="875.51 271.19 1029.13 314.72 775.52 292.15 875.51 271.19"/><polygon class="cls-13" points="909.37 227.2 875.51 271.19 1029.13 314.72 909.37 227.2"/><polygon class="cls-11" points="909.52 227.15 864.51 176.19 708.37 190.2 909.52 227.15"/><polygon class="cls-12" points="864.51 176.19 891.13 145.72 909.52 227.15 864.51 176.19"/><polygon class="cls-13" points="708.37 190.2 864.51 176.19 891.13 145.72 708.37 190.2"/><polygon class="cls-11" points="1168.52 273.15 1076.51 266.19 1028.37 314.2 1168.52 273.15"/><polygon class="cls-12" points="1076.51 266.19 1077.13 223.72 1168.52 273.15 1076.51 266.19"/><polygon class="cls-13" points="1028.37 314.2 1076.51 266.19 1077.13 223.72 1028.37 314.2"/><polygon class="cls-11" points="909.52 227.15 993.51 197.19 1009.37 154.2 909.52 227.15"/><polygon class="cls-12" points="993.51 197.19 1077.13 223.72 909.52 227.15 993.51 197.19"/><polygon class="cls-13" points="1009.37 154.2 993.51 197.19 1077.13 223.72 1009.37 154.2"/><polygon class="cls-11" points="1416.52 291.15 1283.51 260.19 1170.37 272.2 1416.52 291.15"/><polygon class="cls-12" points="1283.51 260.19 1258.13 203.72 1416.52 291.15 1283.51 260.19"/><polygon class="cls-13" points="1170.37 272.2 1283.51 260.19 1258.13 203.72 1170.37 272.2"/><polygon class="cls-11" points="1077.52 223.15 1144.51 169.19 1145.37 115.2 1077.52 223.15"/><polygon class="cls-12" points="1144.51 169.19 1258.13 203.72 1077.52 223.15 1144.51 169.19"/><polygon class="cls-13" points="1145.37 115.2 1144.51 169.19 1258.13 203.72 1145.37 115.2"/><polygon class="cls-11" points="1556.52 253.15 1522.51 204.19 1456.37 190.2 1556.52 253.15"/><polygon class="cls-12" points="1522.51 204.19 1576.13 171.72 1556.52 253.15 1522.51 204.19"/><polygon class="cls-13" points="1456.37 190.2 1522.51 204.19 1576.13 171.72 1456.37 190.2"/><polygon class="cls-11" points="1419.52 291.15 1397.51 230.19 1258.37 203.2 1419.52 291.15"/><polygon class="cls-12" points="1397.51 230.19 1456.13 190.72 1419.52 291.15 1397.51 230.19"/><polygon class="cls-13" points="1258.37 203.2 1397.51 230.19 1456.13 190.72 1258.37 203.2"/><polygon class="cls-11" points="1456.52 190.15 1442.51 145.19 1394.37 134.2 1456.52 190.15"/><polygon class="cls-12" points="1442.51 145.19 1536.13 92.72 1456.52 190.15 1442.51 145.19"/><polygon class="cls-13" points="1394.37 134.2 1442.51 145.19 1536.13 92.72 1394.37 134.2"/><polygon class="cls-11" points="2059.52 314.15 1919.51 268.19 1855.37 293.2 2059.52 314.15"/><polygon class="cls-12" points="1919.51 268.19 1969.13 189.72 2059.52 314.15 1919.51 268.19"/><polygon class="cls-13" points="1855.37 293.2 1919.51 268.19 1969.13 189.72 1855.37 293.2"/><polygon class="cls-11" points="1969.52 190.15 1968.51 151.19 1793.37 112.2 1969.52 190.15"/><polygon class="cls-12" points="1968.51 151.19 2007.13 123.72 1969.52 190.15 1968.51 151.19"/><polygon class="cls-13" points="1793.37 112.2 1968.51 151.19 2007.13 123.72 1793.37 112.2"/><polygon class="cls-11" points="1787.52 203.15 1740.51 166.19 1576.37 171.2 1787.52 203.15"/><polygon class="cls-12" points="1740.51 166.19 1793.13 112.72 1787.52 203.15 1740.51 166.19"/><polygon class="cls-13" points="1576.37 171.2 1740.51 166.19 1793.13 112.72 1576.37 171.2"/><polygon class="cls-11" points="1673.52 261.15 1648.51 203.19 1576.37 171.2 1673.52 261.15"/><polygon class="cls-12" points="1648.51 203.19 1788.13 202.72 1673.52 261.15 1648.51 203.19"/><polygon class="cls-13" points="1576.37 171.2 1648.51 203.19 1788.13 202.72 1576.37 171.2"/><polygon class="cls-11" points="2283.52 286.15 2143.51 245.19 2059.37 314.2 2283.52 286.15"/><polygon class="cls-12" points="2143.51 245.19 2130.13 189.72 2283.52 286.15 2143.51 245.19"/><polygon class="cls-13" points="2059.37 314.2 2143.51 245.19 2130.13 189.72 2059.37 314.2"/><polygon class="cls-11" points="1969.52 190.15 2011.51 161.19 2007.37 123.2 1969.52 190.15"/><polygon class="cls-12" points="2011.51 161.19 2131.13 189.72 1969.52 190.15 2011.51 161.19"/><polygon class="cls-13" points="2007.37 123.2 2011.51 161.19 2131.13 189.72 2007.37 123.2"/><polygon class="cls-11" points="2283.52 286.15 2307.51 261.19 2268.37 171.2 2283.52 286.15"/><polygon class="cls-12" points="2307.51 261.19 2501.13 334.72 2283.52 286.15 2307.51 261.19"/><polygon class="cls-13" points="2268.37 171.2 2307.51 261.19 2501.13 334.72 2268.37 171.2"/><polygon class="cls-11" points="2268.52 171.15 2227.51 151.19 2131.37 189.2 2268.52 171.15"/><polygon class="cls-12" points="2227.51 151.19 2236.13 92.72 2268.52 171.15 2227.51 151.19"/><polygon class="cls-13" points="2131.37 189.2 2227.51 151.19 2236.13 92.72 2131.37 189.2"/><polygon class="cls-11" points="2501.52 334.15 2491.51 282.19 2432.37 240.2 2501.52 334.15"/><polygon class="cls-12" points="2491.51 282.19 2562.13 253.72 2501.52 334.15 2491.51 282.19"/><polygon class="cls-13" points="2432.37 240.2 2491.51 282.19 2562.13 253.72 2432.37 240.2"/><polygon class="cls-11" points="2432.52 240.15 2374.51 179.19 2268.37 170.2 2432.52 240.15"/><polygon class="cls-12" points="2374.51 179.19 2471.13 145.72 2432.52 240.15 2374.51 179.19"/><polygon class="cls-13" points="2268.37 170.2 2374.51 179.19 2471.13 145.72 2268.37 170.2"/><polygon class="cls-11" points="93.52 261.15 128.51 234.19 77.37 203.2 93.52 261.15"/><polygon class="cls-12" points="128.51 234.19 281.13 203.72 93.52 261.15 128.51 234.19"/><polygon class="cls-13" points="77.37 203.2 128.51 234.19 281.13 203.72 77.37 203.2"/><polygon class="cls-14" points="3.37 7.07 18.16 68.81 3.37 148.28 3.37 7.07"/><polygon class="cls-15" points="18.16 68.81 63.17 72.07 3.37 7.07 18.16 68.81"/><polygon class="cls-16" points="3.37 148.28 18.16 68.81 63.17 72.07 3.37 148.28"/><polygon class="cls-14" points="63.57 72.29 70.36 28.18 2.57 3.07 63.57 72.29"/><polygon class="cls-15" points="70.36 28.18 186.37 3.29 63.57 72.29 70.36 28.18"/><polygon class="cls-16" points="2.57 3.07 70.36 28.18 186.37 3.29 2.57 3.07"/><polygon class="cls-14" points="186.37 5.07 161.16 49.81 66.37 72.28 186.37 5.07"/><polygon class="cls-15" points="161.16 49.81 277.17 118.07 186.37 5.07 161.16 49.81"/><polygon class="cls-16" points="66.37 72.28 161.16 49.81 277.17 118.07 66.37 72.28"/><polygon class="cls-14" points="281.57 118.29 291.36 48.17 188.57 5.07 281.57 118.29"/><polygon class="cls-15" points="291.36 48.17 390.37 5.29 281.57 118.29 291.36 48.17"/><polygon class="cls-16" points="188.57 5.07 291.36 48.17 390.37 5.29 188.57 5.07"/><polygon class="cls-14" points="375.37 54.07 393.16 4.81 285.37 118.28 375.37 54.07"/><polygon class="cls-15" points="393.16 4.81 502.17 92.07 375.37 54.07 393.16 4.81"/><polygon class="cls-16" points="285.37 118.28 393.16 4.81 502.17 92.07 285.37 118.28"/><polygon class="cls-14" points="504.57 90.29 502.36 33.17 397.57 5.07 504.57 90.29"/><polygon class="cls-15" points="502.36 33.17 612.37 5.29 504.57 90.29 502.36 33.17"/><polygon class="cls-16" points="397.57 5.07 502.36 33.17 612.37 5.29 397.57 5.07"/><polygon class="cls-14" points="508.37 92.07 592.16 54.81 706.37 110.28 508.37 92.07"/><polygon class="cls-15" points="592.16 54.81 616.17 6.07 508.37 92.07 592.16 54.81"/><polygon class="cls-16" points="706.37 110.28 592.16 54.81 616.17 6.07 706.37 110.28"/><polygon class="cls-14" points="708.57 110.29 698.36 25.18 618.57 5.07 708.57 110.29"/><polygon class="cls-15" points="698.36 25.18 775.37 5.29 708.57 110.29 698.36 25.18"/><polygon class="cls-16" points="618.57 5.07 698.36 25.18 775.37 5.29 618.57 5.07"/><polygon class="cls-14" points="777.37 6.07 777.16 59.81 711.37 110.28 777.37 6.07"/><polygon class="cls-15" points="777.16 59.81 888.17 142.07 777.37 6.07 777.16 59.81"/><polygon class="cls-16" points="711.37 110.28 777.16 59.81 888.17 142.07 711.37 110.28"/><polygon class="cls-14" points="891.57 142.29 871.36 32.17 779.57 5.07 891.57 142.29"/><polygon class="cls-15" points="871.36 32.17 952.37 5.29 891.57 142.29 871.36 32.17"/><polygon class="cls-16" points="779.57 5.07 871.36 32.17 952.37 5.29 779.57 5.07"/><polygon class="cls-14" points="954.37 6.07 929.16 100.81 893.37 145.28 954.37 6.07"/><polygon class="cls-15" points="929.16 100.81 1007.17 154.07 954.37 6.07 929.16 100.81"/><polygon class="cls-16" points="893.37 145.28 929.16 100.81 1007.17 154.07 893.37 145.28"/><polygon class="cls-14" points="1009.57 151.29 1003.36 24.18 956.57 5.07 1009.57 151.29"/><polygon class="cls-15" points="1003.36 24.18 1085.37 5.29 1009.57 151.29 1003.36 24.18"/><polygon class="cls-16" points="956.57 5.07 1003.36 24.18 1085.37 5.29 956.57 5.07"/><polygon class="cls-14" points="1147.37 115.07 1237.16 91.81 1391.37 131.28 1147.37 115.07"/><polygon class="cls-15" points="1237.16 91.81 1265.17 5.07 1147.37 115.07 1237.16 91.81"/><polygon class="cls-16" points="1391.37 131.28 1237.16 91.81 1265.17 5.07 1391.37 131.28"/><polygon class="cls-14" points="1391.57 131.29 1363.36 46.17 1269.57 5.07 1391.57 131.29"/><polygon class="cls-15" points="1363.36 46.17 1469.37 5.29 1391.57 131.29 1363.36 46.17"/><polygon class="cls-16" points="1269.57 5.07 1363.36 46.17 1469.37 5.29 1269.57 5.07"/><polygon class="cls-14" points="1472.37 7.07 1466.16 67.81 1397.37 131.28 1472.37 7.07"/><polygon class="cls-15" points="1466.16 67.81 1535.17 93.07 1472.37 7.07 1466.16 67.81"/><polygon class="cls-16" points="1397.37 131.28 1466.16 67.81 1535.17 93.07 1397.37 131.28"/><polygon class="cls-14" points="1535.57 92.29 1535.36 31.18 1475.57 5.07 1535.57 92.29"/><polygon class="cls-15" points="1535.36 31.18 1633.37 5.29 1535.57 92.29 1535.36 31.18"/><polygon class="cls-16" points="1475.57 5.07 1535.36 31.18 1633.37 5.29 1475.57 5.07"/><polygon class="cls-14" points="1539.37 91.07 1603.16 63.81 1789.37 110.28 1539.37 91.07"/><polygon class="cls-15" points="1603.16 63.81 1635.17 3.07 1539.37 91.07 1603.16 63.81"/><polygon class="cls-16" points="1789.37 110.28 1603.16 63.81 1635.17 3.07 1789.37 110.28"/><polygon class="cls-14" points="1793.57 110.29 1771.36 41.17 1639.57 5.07 1793.57 110.29"/><polygon class="cls-15" points="1771.36 41.17 1889.37 5.29 1793.57 110.29 1771.36 41.17"/><polygon class="cls-16" points="1639.57 5.07 1771.36 41.17 1889.37 5.29 1639.57 5.07"/><polygon class="cls-14" points="1893.37 6.07 1868.16 70.81 1796.37 110.28 1893.37 6.07"/><polygon class="cls-15" points="1868.16 70.81 2003.17 123.07 1893.37 6.07 1868.16 70.81"/><polygon class="cls-16" points="1796.37 110.28 1868.16 70.81 2003.17 123.07 1796.37 110.28"/><polygon class="cls-14" points="2006.57 123.29 1984.36 50.17 1896.57 5.07 2006.57 123.29"/><polygon class="cls-15" points="1984.36 50.17 2140.37 5.29 2006.57 123.29 1984.36 50.17"/><polygon class="cls-16" points="1896.57 5.07 1984.36 50.17 2140.37 5.29 1896.57 5.07"/><polygon class="cls-14" points="2007.37 124.07 2110.16 77.81 2233.37 91.28 2007.37 124.07"/><polygon class="cls-15" points="2110.16 77.81 2143.17 3.07 2007.37 124.07 2110.16 77.81"/><polygon class="cls-16" points="2233.37 91.28 2110.16 77.81 2143.17 3.07 2233.37 91.28"/><polygon class="cls-14" points="2235.57 92.29 2225.36 45.17 2148.57 5.07 2235.57 92.29"/><polygon class="cls-15" points="2225.36 45.17 2301.37 5.29 2235.57 92.29 2225.36 45.17"/><polygon class="cls-16" points="2148.57 5.07 2225.36 45.17 2301.37 5.29 2148.57 5.07"/><polygon class="cls-14" points="2304.37 3.07 2327.16 83.81 2239.37 91.28 2304.37 3.07"/><polygon class="cls-15" points="2327.16 83.81 2471.17 145.07 2304.37 3.07 2327.16 83.81"/><polygon class="cls-16" points="2239.37 91.28 2327.16 83.81 2471.17 145.07 2239.37 91.28"/><polygon class="cls-14" points="2471.37 145.07 2506.16 131.81 2559.37 179.28 2471.37 145.07"/><polygon class="cls-15" points="2506.16 131.81 2562.17 5.07 2471.37 145.07 2506.16 131.81"/><polygon class="cls-16" points="2559.37 179.28 2506.16 131.81 2562.17 5.07 2559.37 179.28"/><polygon class="cls-14" points="2470.57 143.29 2401.36 49.17 2307.57 5.07 2470.57 143.29"/><polygon class="cls-15" points="2401.36 49.17 2559.37 5.29 2470.57 143.29 2401.36 49.17"/><polygon class="cls-16" points="2307.57 5.07 2401.36 49.17 2559.37 5.29 2307.57 5.07"/><polygon class="cls-14" points="1012.37 151.07 1063.16 103.81 1142.37 115.28 1012.37 151.07"/><polygon class="cls-15" points="1063.16 103.81 1087.17 6.07 1012.37 151.07 1063.16 103.81"/><polygon class="cls-16" points="1142.37 115.28 1063.16 103.81 1087.17 6.07 1142.37 115.28"/><polygon class="cls-14" points="1145.57 112.29 1176.36 22.18 1089.57 5.07 1145.57 112.29"/><polygon class="cls-15" points="1176.36 22.18 1261.37 5.29 1145.57 112.29 1176.36 22.18"/><polygon class="cls-16" points="1089.57 5.07 1176.36 22.18 1261.37 5.29 1089.57 5.07"/><polygon class="cls-17" points="3.22 229.68 25.07 290.04 3.37 397.68 3.22 229.68"/><polygon class="cls-18" points="25.07 290.04 93.77 261.54 3.22 229.68 25.07 290.04"/><polygon class="cls-19" points="3.37 397.68 25.07 290.04 93.77 261.54 3.37 397.68"/><polygon class="cls-17" points="260.82 403.68 72.67 366.31 6.96 400.68 260.82 403.68"/><polygon class="cls-18" points="72.67 366.31 93.37 261.81 260.82 403.68 72.67 366.31"/><polygon class="cls-19" points="6.96 400.68 72.67 366.31 93.37 261.81 6.96 400.68"/><polygon class="cls-17" points="93.22 261.68 235.07 338.04 260.37 403.68 93.22 261.68"/><polygon class="cls-18" points="235.07 338.04 328.77 314.54 93.22 261.68 235.07 338.04"/><polygon class="cls-19" points="260.37 403.68 235.07 338.04 328.77 314.54 260.37 403.68"/><polygon class="cls-17" points="418.82 400.68 329.67 366.31 260.96 400.68 418.82 400.68"/><polygon class="cls-18" points="329.67 366.31 329.37 313.81 418.82 400.68 329.67 366.31"/><polygon class="cls-19" points="260.96 400.68 329.67 366.31 329.37 313.81 260.96 400.68"/><polygon class="cls-17" points="329.22 313.68 418.07 343.04 418.37 400.68 329.22 313.68"/><polygon class="cls-18" points="418.07 343.04 557.77 283.54 329.22 313.68 418.07 343.04"/><polygon class="cls-19" points="418.37 400.68 418.07 343.04 557.77 283.54 418.37 400.68"/><polygon class="cls-17" points="671.82 403.68 512.67 366.31 421.96 400.68 671.82 403.68"/><polygon class="cls-18" points="512.67 366.31 558.37 283.81 671.82 403.68 512.67 366.31"/><polygon class="cls-19" points="421.96 400.68 512.67 366.31 558.37 283.81 421.96 400.68"/><polygon class="cls-17" points="558.22 283.68 649.07 323.04 671.37 403.68 558.22 283.68"/><polygon class="cls-18" points="649.07 323.04 771.77 294.54 558.22 283.68 649.07 323.04"/><polygon class="cls-19" points="671.37 403.68 649.07 323.04 771.77 294.54 671.37 403.68"/><polygon class="cls-17" points="671.82 400.68 758.67 366.31 771.97 294.68 671.82 400.68"/><polygon class="cls-18" points="758.67 366.31 924.37 403.81 671.82 400.68 758.67 366.31"/><polygon class="cls-19" points="771.97 294.68 758.67 366.31 924.37 403.81 771.97 294.68"/><polygon class="cls-17" points="777.22 294.68 896.07 332.04 929.37 400.68 777.22 294.68"/><polygon class="cls-18" points="896.07 332.04 1028.77 314.54 777.22 294.68 896.07 332.04"/><polygon class="cls-19" points="929.37 400.68 896.07 332.04 1028.77 314.54 929.37 400.68"/><polygon class="cls-17" points="1089.82 403.68 1007.67 371.31 932.97 399.68 1089.82 403.68"/><polygon class="cls-18" points="1007.67 371.31 1028.37 317.81 1089.82 403.68 1007.67 371.31"/><polygon class="cls-19" points="932.97 399.68 1007.67 371.31 1028.37 317.81 932.97 399.68"/><polygon class="cls-17" points="1168.22 272.68 1081.07 343.04 1028.37 314.68 1168.22 272.68"/><polygon class="cls-18" points="1081.07 343.04 1091.77 403.54 1168.22 272.68 1081.07 343.04"/><polygon class="cls-19" points="1028.37 314.68 1081.07 343.04 1091.77 403.54 1028.37 314.68"/><polygon class="cls-17" points="1296.82 403.68 1216.67 375.31 1095.96 400.68 1296.82 403.68"/><polygon class="cls-18" points="1216.67 375.31 1170.37 272.81 1296.82 403.68 1216.67 375.31"/><polygon class="cls-19" points="1095.96 400.68 1216.67 375.31 1170.37 272.81 1095.96 400.68"/><polygon class="cls-17" points="1175.22 274.68 1265.07 318.04 1299.37 403.68 1175.22 274.68"/><polygon class="cls-18" points="1265.07 318.04 1416.77 291.54 1175.22 274.68 1265.07 318.04"/><polygon class="cls-19" points="1299.37 403.68 1265.07 318.04 1416.77 291.54 1299.37 403.68"/><polygon class="cls-17" points="1302.82 403.68 1391.67 355.31 1419.96 294.68 1302.82 403.68"/><polygon class="cls-18" points="1391.67 355.31 1477.37 403.81 1302.82 403.68 1391.67 355.31"/><polygon class="cls-19" points="1419.96 294.68 1391.67 355.31 1477.37 403.81 1419.96 294.68"/><polygon class="cls-17" points="1420.22 291.68 1475.07 328.04 1477.37 403.68 1420.22 291.68"/><polygon class="cls-18" points="1475.07 328.04 1555.77 252.54 1420.22 291.68 1475.07 328.04"/><polygon class="cls-19" points="1477.37 403.68 1475.07 328.04 1555.77 252.54 1477.37 403.68"/><polygon class="cls-17" points="1607.82 403.68 1543.67 359.31 1479.96 400.68 1607.82 403.68"/><polygon class="cls-18" points="1543.67 359.31 1555.37 252.81 1607.82 403.68 1543.67 359.31"/><polygon class="cls-19" points="1479.96 400.68 1543.67 359.31 1555.37 252.81 1479.96 400.68"/><polygon class="cls-17" points="1556.22 252.68 1602.07 300.04 1610.37 400.68 1556.22 252.68"/><polygon class="cls-18" points="1602.07 300.04 1673.77 261.54 1556.22 252.68 1602.07 300.04"/><polygon class="cls-19" points="1610.37 400.68 1602.07 300.04 1673.77 261.54 1610.37 400.68"/><polygon class="cls-17" points="1614.82 400.68 1676.67 344.31 1673.96 263.68 1614.82 400.68"/><polygon class="cls-18" points="1676.67 344.31 1785.37 400.81 1614.82 400.68 1676.67 344.31"/><polygon class="cls-19" points="1673.96 263.68 1676.67 344.31 1785.37 400.81 1673.96 263.68"/><polygon class="cls-17" points="1674.22 261.68 1757.07 307.04 1788.37 403.68 1674.22 261.68"/><polygon class="cls-18" points="1757.07 307.04 1855.77 294.54 1674.22 261.68 1757.07 307.04"/><polygon class="cls-19" points="1788.37 403.68 1757.07 307.04 1855.77 294.54 1788.37 403.68"/><polygon class="cls-17" points="1948.82 403.68 1838.67 365.31 1788.96 400.68 1948.82 403.68"/><polygon class="cls-18" points="1838.67 365.31 1856.37 296.81 1948.82 403.68 1838.67 365.31"/><polygon class="cls-19" points="1788.96 400.68 1838.67 365.31 1856.37 296.81 1788.96 400.68"/><polygon class="cls-17" points="1856.22 294.68 1972.07 335.04 1948.37 403.68 1856.22 294.68"/><polygon class="cls-18" points="1972.07 335.04 2059.77 314.54 1856.22 294.68 1972.07 335.04"/><polygon class="cls-19" points="1948.37 403.68 1972.07 335.04 2059.77 314.54 1948.37 403.68"/><polygon class="cls-17" points="2168.82 400.68 2073.67 365.31 1948.96 403.68 2168.82 400.68"/><polygon class="cls-18" points="2073.67 365.31 2059.37 313.81 2168.82 400.68 2073.67 365.31"/><polygon class="cls-19" points="1948.96 403.68 2073.67 365.31 2059.37 313.81 1948.96 403.68"/><polygon class="cls-17" points="2062.22 313.68 2188.07 337.04 2171.37 400.68 2062.22 313.68"/><polygon class="cls-18" points="2188.07 337.04 2283.77 286.54 2062.22 313.68 2188.07 337.04"/><polygon class="cls-19" points="2171.37 400.68 2188.07 337.04 2283.77 286.54 2171.37 400.68"/><polygon class="cls-17" points="2171.82 403.68 2258.67 357.31 2282.97 289.68 2171.82 403.68"/><polygon class="cls-18" points="2258.67 357.31 2378.37 403.81 2171.82 403.68 2258.67 357.31"/><polygon class="cls-19" points="2282.97 289.68 2258.67 357.31 2378.37 403.81 2282.97 289.68"/><polygon class="cls-17" points="2501.22 334.68 2363.07 347.04 2283.37 285.68 2501.22 334.68"/><polygon class="cls-18" points="2363.07 347.04 2378.77 403.54 2501.22 334.68 2363.07 347.04"/><polygon class="cls-19" points="2283.37 285.68 2363.07 347.04 2378.77 403.54 2283.37 285.68"/><polygon class="cls-17" points="2501.22 334.68 2534.07 337.04 2562.37 403.68 2501.22 334.68"/><polygon class="cls-18" points="2534.07 337.04 2561.77 255.54 2501.22 334.68 2534.07 337.04"/><polygon class="cls-19" points="2562.37 403.68 2534.07 337.04 2561.77 255.54 2562.37 403.68"/><polygon class="cls-17" points="2559.82 400.68 2483.67 374.31 2378.97 403.68 2559.82 400.68"/><polygon class="cls-18" points="2483.67 374.31 2501.37 334.81 2559.82 400.68 2483.67 374.31"/><polygon class="cls-19" points="2378.97 403.68 2483.67 374.31 2501.37 334.81 2378.97 403.68"/><polygon class="cls-20" points="1077.37 223.68 1145.37 115.68 1258.37 203.68 1077.37 223.68"/><polygon class="cls-20" points="421.83 403.43 557.8 283.48 328.95 314.09 421.83 403.43"/><polygon class="cls-20" points="260.36 403.43 328.34 314.09 93.42 261.39 260.36 403.43"/><polygon class="cls-20" points="671.32 403.43 771.48 294.52 558.41 283.48 671.32 403.43"/><polygon class="cls-20" points="1091.99 403.43 1170.3 272.43 1028.86 314.59 1091.99 403.43"/><polygon class="cls-20" points="1477.45 403.43 1555.76 252.36 1419.79 291.51 1477.45 403.43"/><polygon class="cls-20" points="929.3 403.43 1028.86 314.59 771.48 294.52 929.3 403.43"/><polygon class="cls-20" points="1300.2 403.43 1419.79 291.51 1170.3 272.43 1300.2 403.43"/><polygon class="cls-20" points="260.17 403.43 2.37 403.43 93.67 261.39 260.17 403.43"/><polygon class="cls-20" points="1610.37 403.43 1477.7 403.17 1555.69 252.11 1610.37 403.43"/><polygon class="cls-20" points="421.69 403.43 260.44 403.43 328.87 314.09 421.69 403.43"/><polygon class="cls-20" points="1789.37 403.43 1610.37 403.43 1673.76 261.39 1789.37 403.43"/><polygon class="cls-20" points="2562.37 403.43 2378.37 403.43 2501.37 334.43 2562.37 403.43"/><polygon class="cls-20" points="1948.69 403.43 1787.44 403.43 1855.87 294.43 1948.69 403.43"/><polygon class="cls-20" points="1477.39 403.43 1299.83 403.43 1419.65 291.51 1477.39 403.43"/><polygon class="cls-20" points="671.4 403.43 421.78 403.43 558.03 283.48 671.4 403.43"/><polygon class="cls-20" points="929.19 403.43 671.39 403.43 771.47 294.52 929.19 403.43"/><polygon class="cls-20" points="1092.24 403.43 929.47 403.43 1028.45 314.59 1092.24 403.43"/><polygon class="cls-20" points="1299.63 403.43 1092.62 403.43 1170.54 272.43 1299.63 403.43"/><polygon class="cls-20" points="2171.37 403.43 2283.37 286.17 2059.37 314.17 2171.37 403.43"/><polygon class="cls-20" points="2378.37 403.43 2501.37 334.43 2283.37 286.43 2378.37 403.43"/><polygon class="cls-20" points="2562.37 403.43 2562.37 253.43 2501.37 334.43 2562.37 403.43"/><polygon class="cls-20" points="1788.37 403.43 1856.37 294.43 1673.37 261.43 1788.37 403.43"/><polygon class="cls-20" points="1610.37 403.43 1673.37 261.43 1555.37 252.43 1610.37 403.43"/><polygon class="cls-20" points="1948.37 403.43 2059.37 314.43 1855.37 294.43 1948.37 403.43"/><polygon class="cls-20" points="2171.37 403.43 1948.37 403.43 2059.82 314.59 2171.37 403.43"/><polygon class="cls-20" points="2378.63 403.43 2171.62 403.43 2283.37 286.43 2378.63 403.43"/><polygon class="cls-20" points="3.04 227.6 2.37 403.43 93.67 261.39 3.04 227.6"/><polygon class="cls-20" points="2142.91 3.42 2006.93 123.38 2235.78 92.76 2142.91 3.42"/><polygon class="cls-20" points="2304.38 3.42 2236.39 92.76 2471.31 145.46 2304.38 3.42"/><polygon class="cls-20" points="1893.42 3.42 1793.26 112.33 2006.33 123.38 1893.42 3.42"/><polygon class="cls-20" points="1472.75 3.42 1394.44 134.42 1535.88 92.26 1472.75 3.42"/><polygon class="cls-20" points="1087.28 3.42 1008.97 154.49 1144.95 115.34 1087.28 3.42"/><polygon class="cls-20" points="1635.43 3.42 1535.88 92.26 1793.26 112.33 1635.43 3.42"/><polygon class="cls-20" points="1264.54 3.42 1144.95 115.34 1394.44 134.42 1264.54 3.42"/><polygon class="cls-20" points="2304.57 3.42 2562.37 3.42 2471.07 145.46 2304.57 3.42"/><polygon class="cls-20" points="954.37 3.42 1087.04 3.68 1009.04 154.74 954.37 3.42"/><polygon class="cls-20" points="2143.05 3.42 2304.29 3.42 2235.86 92.76 2143.05 3.42"/><polygon class="cls-20" points="775.37 3.42 954.37 3.42 890.97 145.46 775.37 3.42"/><polygon class="cls-20" points="2.37 3.42 186.37 3.42 63.37 72.42 2.37 3.42"/><polygon class="cls-20" points="616.05 3.42 777.29 3.42 708.86 112.42 616.05 3.42"/><polygon class="cls-20" points="1087.34 3.42 1264.91 3.42 1145.09 115.34 1087.34 3.42"/><polygon class="cls-20" points="1893.33 3.42 2142.96 3.42 2006.7 123.38 1893.33 3.42"/><polygon class="cls-20" points="1635.54 3.42 1893.34 3.42 1793.26 112.33 1635.54 3.42"/><polygon class="cls-20" points="1472.5 3.42 1635.27 3.42 1536.29 92.26 1472.5 3.42"/><polygon class="cls-20" points="1265.11 3.42 1472.12 3.42 1394.2 134.42 1265.11 3.42"/><polygon class="cls-20" points="393.37 3.42 281.37 120.68 505.37 92.68 393.37 3.42"/><polygon class="cls-20" points="186.37 3.42 63.37 72.42 281.37 120.42 186.37 3.42"/><polygon class="cls-20" points="2.37 3.42 2.37 153.43 63.37 72.42 2.37 3.42"/><polygon class="cls-20" points="776.37 3.42 708.37 112.42 891.37 145.43 776.37 3.42"/><polygon class="cls-20" points="954.37 3.42 891.37 145.43 1009.37 154.43 954.37 3.42"/><polygon class="cls-20" points="616.37 3.42 505.37 92.42 709.37 112.42 616.37 3.42"/><polygon class="cls-20" points="393.37 3.42 616.37 3.42 504.91 92.26 393.37 3.42"/><polygon class="cls-20" points="186.11 3.42 393.12 3.42 281.37 120.42 186.11 3.42"/><polygon class="cls-20" points="2561.7 179.25 2562.37 3.42 2471.07 145.46 2561.7 179.25"/><polygon class="cls-20" points="63.37 72.42 77.67 203.43 2.37 153.43 63.37 72.42"/><polygon class="cls-20" points="3.04 227.6 77.67 203.43 93.67 261.39 3.04 227.6"/><polygon class="cls-20" points="281.37 120.42 77.67 203.43 63.37 72.42 281.37 120.42"/><polygon class="cls-20" points="93.67 261.39 281.37 203.43 328.87 314.09 93.67 261.39"/><polygon class="cls-20" points="281.37 120.42 281.37 203.43 77.67 203.43 281.37 120.42"/><polygon class="cls-20" points="281.37 203.68 93.37 261.68 77.37 203.68 281.37 203.68"/><polygon class="cls-20" points="504.91 92.26 281.37 203.43 281.37 120.42 504.91 92.26"/><polygon class="cls-20" points="328.87 314.09 505.37 227.6 281.37 203.43 328.87 314.09"/><polygon class="cls-20" points="558.03 283.48 505.37 227.6 328.87 314.09 558.03 283.48"/><polygon class="cls-20" points="504.91 92.26 505.37 227.6 281.37 203.43 504.91 92.26"/><polygon class="cls-20" points="709.37 112.42 505.37 227.6 504.91 92.26 709.37 112.42"/><polygon class="cls-20" points="558.03 283.48 708.37 190.51 505.37 227.6 558.03 283.48"/><polygon class="cls-20" points="709.37 112.42 708.37 190.51 505.37 227.6 709.37 112.42"/><polygon class="cls-20" points="891.37 145.43 708.37 190.51 709.37 112.42 891.37 145.43"/><polygon class="cls-20" points="771.47 294.52 708.37 190.51 558.03 283.48 771.47 294.52"/><polygon class="cls-20" points="891.37 145.43 908.9 227.6 708.37 190.51 891.37 145.43"/><polygon class="cls-20" points="771.47 294.52 908.9 227.6 1028.45 314.59 771.47 294.52"/><polygon class="cls-20" points="1009.37 154.43 908.9 227.6 891.37 145.43 1009.37 154.43"/><polygon class="cls-20" points="1077.43 223.43 1009.37 154.43 908.9 227.6 1077.43 223.43"/><polygon class="cls-20" points="908.37 227.68 708.37 190.68 771.37 294.68 908.37 227.68"/><polygon class="cls-20" points="1028.45 314.59 1077.43 223.43 908.9 227.6 1028.45 314.59"/><polygon class="cls-20" points="1170.54 272.43 1077.43 223.43 1028.45 314.59 1170.54 272.43"/><polygon class="cls-20" points="1145.09 115.34 1077.43 223.43 1009.37 154.43 1145.09 115.34"/><polygon class="cls-20" points="1394.2 134.42 1258.11 203.6 1145.09 115.34 1394.2 134.42"/><polygon class="cls-20" points="1170.54 272.43 1258.11 203.6 1419.65 291.51 1170.54 272.43"/><polygon class="cls-20" points="1394.2 134.42 1456.58 190.51 1536.29 92.26 1394.2 134.42"/><polygon class="cls-20" points="1419.65 291.51 1456.58 190.51 1555.37 252.43 1419.65 291.51"/><polygon class="cls-20" points="1419.37 291.68 1258.37 203.68 1456.37 190.68 1419.37 291.68"/><polygon class="cls-20" points="1258.37 203.68 1394.37 134.68 1456.37 190.68 1258.37 203.68"/><polygon class="cls-20" points="1170.37 272.68 1077.37 223.68 1258.37 203.68 1170.37 272.68"/><polygon class="cls-20" points="1456.37 190.68 1535.37 92.68 1576.37 171.68 1456.37 190.68"/><polygon class="cls-20" points="1536.29 92.26 1576.87 171.18 1793.26 112.33 1536.29 92.26"/><polygon class="cls-20" points="1555.37 252.43 1576.87 171.18 1673.37 261.43 1555.37 252.43"/><polygon class="cls-20" points="1456.37 190.68 1577.37 171.68 1555.37 252.68 1456.37 190.68"/><polygon class="cls-20" points="1793.26 112.33 1787.87 203.18 1576.87 171.18 1793.26 112.33"/><polygon class="cls-20" points="1855.37 294.43 1787.87 203.18 1673.37 261.43 1855.37 294.43"/><polygon class="cls-20" points="2006.7 123.38 1968.87 190.18 1793.26 112.33 2006.7 123.38"/><polygon class="cls-20" points="1968.37 190.68 1788.37 203.68 1793.37 112.68 1968.37 190.68"/><polygon class="cls-20" points="2059.82 314.59 1968.87 190.18 1855.37 294.43 2059.82 314.59"/><polygon class="cls-20" points="2235.86 92.76 2130.87 190.18 2006.7 123.38 2235.86 92.76"/><polygon class="cls-20" points="2283.37 286.43 2130.87 190.18 2059.82 314.59 2283.37 286.43"/><polygon class="cls-20" points="2235.86 92.76 2267.87 171.18 2471.07 145.46 2235.86 92.76"/><polygon class="cls-20" points="2283.37 286.43 2267.87 171.18 2501.37 334.43 2283.37 286.43"/><polygon class="cls-20" points="2267.37 171.68 2471.37 145.68 2432.37 240.68 2267.37 171.68"/><polygon class="cls-20" points="2432.37 240.68 2562.37 179.68 2562.37 253.68 2432.37 240.68"/><polygon class="cls-20" points="2471.07 145.46 2432.87 240.18 2561.7 179.25 2471.07 145.46"/><polygon class="cls-20" points="2432.37 240.68 2268.37 171.68 2501.37 334.68 2432.37 240.68"/><polygon class="cls-20" points="2501.37 334.43 2432.87 240.18 2562.87 253.18 2501.37 334.43"/><polygon class="cls-20" points="2.37 153.43 2.37 227.6 77.67 203.43 2.37 153.43"/><polygon class="cls-20" points="1968.87 190.18 2130.87 190.18 2059.82 314.59 1968.87 190.18"/><polygon class="cls-20" points="1968.37 190.68 2007.37 123.68 2130.37 189.68 1968.37 190.68"/><polygon class="cls-20" points="1788.37 203.68 1969.37 189.68 1855.37 293.68 1788.37 203.68"/><polygon class="cls-20" points="1576.37 171.68 1788.37 203.68 1673.37 260.68 1576.37 171.68"/><polygon class="cls-20" points="2131.37 189.68 2268.37 170.68 2283.37 289.68 2131.37 189.68"/><polygon class="cls-20" points="2131.37 189.68 2236.37 92.68 2268.37 170.68 2131.37 189.68"/><rect class="cls-21" x="3.37" y="1.68" width="2559" height="402"/></g></g></g></svg>